<?xml version="1.0" encoding="UTF-8"?>
<!DOCTYPE svg PUBLIC "-//W3C//DTD SVG 1.1//EN" "http://www.w3.org/Graphics/SVG/1.1/DTD/svg11.dtd">
<svg xmlns="http://www.w3.org/2000/svg" version="1.1" width="512px" height="512px" style="shape-rendering:geometricPrecision; text-rendering:geometricPrecision; image-rendering:optimizeQuality; fill-rule:evenodd; clip-rule:evenodd" xmlns:xlink="http://www.w3.org/1999/xlink">
<g><path style="opacity:1" fill="#fefffe" d="M 283.5,0.5 C 295.352,-1.05157 305.185,2.61509 313,11.5C 322.537,24.4195 329.204,38.7529 333,54.5C 337.203,70.8472 340.37,87.3472 342.5,104C 301.653,145.014 260.653,185.847 219.5,226.5C 213.107,177.383 215.607,128.716 227,80.5C 233.754,53.8137 246.587,30.647 265.5,11C 271.136,6.68885 277.136,3.18885 283.5,0.5 Z"/></g>
<g><path style="opacity:1" fill="#fefffe" d="M 378.5,102.5 C 382.41,102.263 386.077,103.096 389.5,105C 395,110.5 400.5,116 406,121.5C 409.146,127.297 408.813,132.963 405,138.5C 357.167,186.333 309.333,234.167 261.5,282C 266.66,285.646 269.993,290.479 271.5,296.5C 270.811,298.444 270.311,300.444 270,302.5C 256.863,316.638 243.363,330.471 229.5,344C 228.5,344.667 227.5,344.667 226.5,344C 206.167,323.667 185.833,303.333 165.5,283C 179.167,269.333 192.833,255.667 206.5,242C 211.5,238.667 216.5,238.667 221.5,242C 224,244.5 226.5,247 229,249.5C 277.167,201.333 325.333,153.167 373.5,105C 375.315,104.243 376.981,103.41 378.5,102.5 Z"/></g>
<g><path style="opacity:1" fill="#fefffe" d="M 511.5,214.5 C 511.5,219.5 511.5,224.5 511.5,229.5C 504.256,244.253 493.589,256.086 479.5,265C 452.189,280.498 422.856,289.831 391.5,293C 356.122,297.815 320.788,297.649 285.5,292.5C 325.653,251.847 365.986,211.347 406.5,171C 432.796,172.24 458.129,177.907 482.5,188C 495.685,193.215 505.351,202.048 511.5,214.5 Z"/></g>
<g><path style="opacity:1" fill="#fefffe" d="M 155.5,292.5 C 176.632,313.132 197.632,333.965 218.5,355C 209,364.5 199.5,374 190,383.5C 169.167,362.667 148.333,341.833 127.5,321C 137.036,311.632 146.369,302.132 155.5,292.5 Z"/></g>
<g><path style="opacity:1" fill="#fefffe" d="M -0.5,491.5 C -0.5,487.167 -0.5,482.833 -0.5,478.5C 29.132,449.368 58.632,420.035 88,390.5C 88.6667,389.833 88.6667,389.167 88,388.5C 84.5733,385.744 81.9066,382.41 80,378.5C 79.2617,374.739 79.5951,371.072 81,367.5C 93.3333,355.167 105.667,342.833 118,330.5C 138.874,351.04 159.374,371.874 179.5,393C 167.479,406.688 154.479,419.355 140.5,431C 132.908,432.108 126.908,429.441 122.5,423C 121.833,422.333 121.167,422.333 120.5,423C 92.4721,451.362 64.1388,479.362 35.5,507C 17.8133,514.651 5.81334,509.484 -0.5,491.5 Z"/></g>
</svg>
